<svg id="Layer_1" data-name="Layer 1" xmlns="http://www.w3.org/2000/svg" viewBox="0 0 200 50"><defs><style>.cls-1{fill:#3c3fa3;}.cls-2{fill:#ffc107;}</style></defs><rect class="cls-1" width="200" height="50" rx="5"/><path class="cls-2" d="M25.72,13c-1.62-1.39-4-2.08-7.1-2.08h-8.4a3,3,0,0,0-2,.64,3,3,0,0,0-1,1.92L3.58,36.38a2.89,2.89,0,0,0,.34,2.24,2.05,2.05,0,0,0,1.78.8,3,3,0,0,0,2-.64,3.14,3.14,0,0,0,.94-1.92l1.4-9h4.12a4.4,4.4,0,0,1,2.48.6,4.09,4.09,0,0,1,1.4,2l2.56,6.72a4.08,4.08,0,0,0,1.06,1.7,2.44,2.44,0,0,0,1.66.54A3,3,0,0,0,25,39a1.59,1.59,0,0,0,.7-1.14,3.87,3.87,0,0,0-.3-1.78l-1.92-5a7.3,7.3,0,0,0-1.92-2.94,3.91,3.91,0,0,0-1.14-.69A12.76,12.76,0,0,0,23,26.76a8.25,8.25,0,0,0,3.8-3,8.78,8.78,0,0,0,1.38-5.08A7.16,7.16,0,0,0,25.72,13Zm-4,9.78A6.37,6.37,0,0,1,17.46,24h-6.8l1.44-9.08h5.76a6.42,6.42,0,0,1,4,1A3.78,3.78,0,0,1,23.14,19a4.5,4.5,0,0,1-1.46,3.72Z"/><path class="cls-2" d="M45,20.22a10.43,10.43,0,0,0-5-1.08,11.21,11.21,0,0,0-4.24.8,10.28,10.28,0,0,0-3.46,2.32A10.77,10.77,0,0,0,30,25.9a12.88,12.88,0,0,0-.84,4.76,9.52,9.52,0,0,0,1.1,4.68,7.45,7.45,0,0,0,3.16,3.08,10.43,10.43,0,0,0,4.94,1.08,11.21,11.21,0,0,0,4.24-.8A10.44,10.44,0,0,0,46,36.38a10.78,10.78,0,0,0,2.34-3.64A12.81,12.81,0,0,0,49.22,28a9.63,9.63,0,0,0-1.1-4.7A7.59,7.59,0,0,0,45,20.22Zm-1.5,11.6a6.72,6.72,0,0,1-1.94,2.84,4.75,4.75,0,0,1-3.1,1,4,4,0,0,1-3.14-1.26,5.21,5.21,0,0,1-1.14-3.62,11.15,11.15,0,0,1,.68-4,6.5,6.5,0,0,1,2-2.82,4.77,4.77,0,0,1,3.08-1A4,4,0,0,1,43,24.2a5.21,5.21,0,0,1,1.14,3.62A11.33,11.33,0,0,1,43.5,31.82Z"/><path class="cls-2" d="M67.7,20.38a11.5,11.5,0,0,0-2.48-.9,12.8,12.8,0,0,0-7.78.62A9.6,9.6,0,0,0,54,22.68a10.72,10.72,0,0,0-2,3.68,13.73,13.73,0,0,0-.66,4.22,10,10,0,0,0,1,4.66,7.29,7.29,0,0,0,3.1,3.14,10.71,10.71,0,0,0,5.18,1.12,12.69,12.69,0,0,0,2.88-.36,8.76,8.76,0,0,0,2.6-1,2.3,2.3,0,0,0,1-1A1.93,1.93,0,0,0,67.2,36a2,2,0,0,0-.46-1,1.66,1.66,0,0,0-.88-.54,1.56,1.56,0,0,0-1.08.16,7.09,7.09,0,0,1-3.44.92,4.61,4.61,0,0,1-3.78-1.4,5.66,5.66,0,0,1-1.14-3.68,10.84,10.84,0,0,1,.34-2.72,7.52,7.52,0,0,1,1.08-2.42,5.32,5.32,0,0,1,1.94-1.74A6.12,6.12,0,0,1,62.7,23a8.09,8.09,0,0,1,1.9.22,7,7,0,0,1,1.82.74,1.59,1.59,0,0,0,1.2.22,1.7,1.7,0,0,0,.92-.58,2.18,2.18,0,0,0,.46-1,1.93,1.93,0,0,0-.2-1.18A2.57,2.57,0,0,0,67.7,20.38Z"/><path class="cls-2" d="M86.45,19.22a3,3,0,0,0-1.5.36,8.54,8.54,0,0,0-1.42,1.12l-7.8,7.16h-.08l2.29-14.32a3,3,0,0,0-.34-2.18,2,2,0,0,0-1.7-.78,3,3,0,0,0-2,.58A2.82,2.82,0,0,0,73,13L69.3,36.54a2.82,2.82,0,0,0,.34,2.12,1.94,1.94,0,0,0,1.7.76,2.58,2.58,0,0,0,2.87-2.26s0-.11,0-.16l1.08-6.84h.08l6,7.36A10.17,10.17,0,0,0,82.76,39a2.51,2.51,0,0,0,1.61.46,2.11,2.11,0,0,0,1.53-.54,2,2,0,0,0,.62-1.36,2.36,2.36,0,0,0-.58-1.62l-5.38-6.76,6.86-6.44a2.53,2.53,0,0,0,.85-1.54,1.75,1.75,0,0,0-.35-1.38A1.78,1.78,0,0,0,86.45,19.22Z"/><path class="cls-2" d="M106.94,22.24a6.84,6.84,0,0,0-2.6-2.26,8.82,8.82,0,0,0-4.08-.84,10.37,10.37,0,0,0-5.61,1.52,10.65,10.65,0,0,0-3.81,4.1,12.19,12.19,0,0,0-1.38,5.86,8.92,8.92,0,0,0,1.19,4.68A8.14,8.14,0,0,0,94,38.4a11.46,11.46,0,0,0,5.15,1.1,16,16,0,0,0,3.51-.44A10.06,10.06,0,0,0,106,37.7a2.63,2.63,0,0,0,.9-1,2.06,2.06,0,0,0,.18-1.12,1.85,1.85,0,0,0-.42-.92,1.41,1.41,0,0,0-.92-.44,2.28,2.28,0,0,0-1.34.38,7.73,7.73,0,0,1-2.32.86,12.24,12.24,0,0,1-2.49.26A5.42,5.42,0,0,1,95.22,34a5,5,0,0,1-1.07-3.52H106.9a1.83,1.83,0,0,0,1-.24,1.45,1.45,0,0,0,.44-1.08,13.35,13.35,0,0,0-.12-3.68A8.6,8.6,0,0,0,106.94,22.24ZM95.38,25.4a5.63,5.63,0,0,1,1.88-2.06,5.29,5.29,0,0,1,3-.8,4.32,4.32,0,0,1,2.7.76,3.86,3.86,0,0,1,1.34,2,6.38,6.38,0,0,1,.18,2.26H94.59A8.36,8.36,0,0,1,95.38,25.4Z"/><path class="cls-2" d="M124.52,19.92a2.68,2.68,0,0,0-1.54-.38h-3.92l.51-3.4a2.57,2.57,0,0,0-.36-2,2.17,2.17,0,0,0-1.84-.72,2.72,2.72,0,0,0-1.84.58,2.86,2.86,0,0,0-.88,1.74l-.59,3.84h-1.88a2.86,2.86,0,0,0-1.85.56,2,2,0,0,0-.68,1.6,1.41,1.41,0,0,0,.54,1.18,2.43,2.43,0,0,0,1.5.42h1.76l-1.35,8.52a7.56,7.56,0,0,0,.3,4,5.14,5.14,0,0,0,2.33,2.7,8.45,8.45,0,0,0,4.29,1,10.16,10.16,0,0,0,1.23-.08,5.83,5.83,0,0,0,1.16-.24,2.43,2.43,0,0,0,1.2-.76,2.9,2.9,0,0,0,.45-1.88,1.7,1.7,0,0,0-.27-1.1,1,1,0,0,0-.81-.3,2.92,2.92,0,0,0-.83.12,4.3,4.3,0,0,1-1.13.12,3.08,3.08,0,0,1-2.37-.9,3.48,3.48,0,0,1-.51-3l1.31-8.2h4.28a2.34,2.34,0,0,0,1.71-.62,2.16,2.16,0,0,0,.62-1.58A1.38,1.38,0,0,0,124.52,19.92Z"/><path class="cls-2" d="M160.23,14.08a2.16,2.16,0,0,0-.9-1.22,11.77,11.77,0,0,0-3.72-1.76,16.28,16.28,0,0,0-4.44-.6,15.83,15.83,0,0,0-6.44,1.24A13.54,13.54,0,0,0,140,15.18a15.21,15.21,0,0,0-3,5.14,19.22,19.22,0,0,0-1,6.38,14,14,0,0,0,1.66,7.12,10.66,10.66,0,0,0,4.56,4.26,15,15,0,0,0,6.66,1.42,16.12,16.12,0,0,0,4.2-.58,13.58,13.58,0,0,0,4-1.74A2.5,2.5,0,0,0,158,36a2.14,2.14,0,0,0,.12-1.32,2.26,2.26,0,0,0-.58-1.14,1.83,1.83,0,0,0-1.1-.58,2.22,2.22,0,0,0-1.46.38,10.63,10.63,0,0,1-5.64,1.56A10,10,0,0,1,145,34a5.66,5.66,0,0,1-2.68-2.72,11.09,11.09,0,0,1-.9-4.82,14.79,14.79,0,0,1,1.12-5.88,9.49,9.49,0,0,1,3.26-4.1A8.89,8.89,0,0,1,151,15a11.42,11.42,0,0,1,3.08.4,10.51,10.51,0,0,1,3,1.44,1.78,1.78,0,0,0,2.42-.26,2.88,2.88,0,0,0,.66-1.18A2.44,2.44,0,0,0,160.23,14.08Z"/><path class="cls-2" d="M175.65,20.3a9.1,9.1,0,0,0-5-1.16,18.7,18.7,0,0,0-3.42.34,15.82,15.82,0,0,0-3.5,1.1,3,3,0,0,0-1.25,1,1.67,1.67,0,0,0-.34,1.14,1.51,1.51,0,0,0,.42,1,1.71,1.71,0,0,0,1,.54,2.39,2.39,0,0,0,1.37-.2,12.16,12.16,0,0,1,2.55-.86,13.1,13.1,0,0,1,2.57-.26,4,4,0,0,1,3.13,1,3.27,3.27,0,0,1,.58,2.88l-.11.72H170.9a25.28,25.28,0,0,0-6.25.64,7.12,7.12,0,0,0-3.59,1.94,4.86,4.86,0,0,0-1.16,3.38,5.33,5.33,0,0,0,.89,3,6.75,6.75,0,0,0,2.39,2.18,6.56,6.56,0,0,0,3.27.82,7.32,7.32,0,0,0,2.62-.48,6.46,6.46,0,0,0,2.29-1.5,6.76,6.76,0,0,0,1-1.26l-.07.4a2.62,2.62,0,0,0,.35,2.06,1.88,1.88,0,0,0,1.62.7,2.71,2.71,0,0,0,1.85-.62,2.85,2.85,0,0,0,.87-1.86L178.33,28a9.91,9.91,0,0,0-.23-4.56A5.68,5.68,0,0,0,175.65,20.3ZM172.1,34A4.84,4.84,0,0,1,168,36.1a3.49,3.49,0,0,1-2.3-.76,2.64,2.64,0,0,1-.95-2.16,2.31,2.31,0,0,1,.6-1.68,3.69,3.69,0,0,1,2-.84,23.79,23.79,0,0,1,3.77-.24h2.06l-.2,1.12A5.6,5.6,0,0,1,172.1,34Z"/><path class="cls-2" d="M196.11,19.46a1.87,1.87,0,0,0-1.5-.32,8.32,8.32,0,0,0-4.36,1.46,6.88,6.88,0,0,0-2,2.29l.14-.87a2.67,2.67,0,0,0-.34-2.08,2,2,0,0,0-1.7-.72,2.84,2.84,0,0,0-1.88.6,2.91,2.91,0,0,0-.92,1.8l-2.35,15a2.72,2.72,0,0,0,.34,2.1,2,2,0,0,0,1.73.74,3.06,3.06,0,0,0,2-.6,2.63,2.63,0,0,0,.91-1.8L187.45,29A7.4,7.4,0,0,1,189,25.2a5.65,5.65,0,0,1,3.84-1.62l1.16-.12a3,3,0,0,0,1.88-.74,2.72,2.72,0,0,0,.59-1.94A1.89,1.89,0,0,0,196.11,19.46Z"/></svg>