<svg id="Layer_1" data-name="Layer 1" xmlns="http://www.w3.org/2000/svg" viewBox="0 0 200 50"><defs><style>.cls-1{fill:#3c3fa3;}.cls-2{fill:#fff;}</style></defs><rect class="cls-1" width="200" height="50" rx="5"/><path class="cls-2" d="M25.72,13c-1.62-1.39-4-2.08-7.1-2.08h-8.4a3,3,0,0,0-2,.64,3,3,0,0,0-1,1.92L3.58,36.38a2.89,2.89,0,0,0,.34,2.24,2.05,2.05,0,0,0,1.78.8,3,3,0,0,0,2-.64,3.13,3.13,0,0,0,.94-1.92l1.4-9h4.12a4.39,4.39,0,0,1,2.48.6,4.08,4.08,0,0,1,1.4,2l2.56,6.72a4.11,4.11,0,0,0,1.06,1.7,2.42,2.42,0,0,0,1.66.54A3,3,0,0,0,25,39a1.58,1.58,0,0,0,.7-1.14,3.86,3.86,0,0,0-.3-1.78l-1.92-5a7.38,7.38,0,0,0-1.92-2.94,4,4,0,0,0-1.14-.69A12.65,12.65,0,0,0,23,26.76a8.27,8.27,0,0,0,3.8-3,8.75,8.75,0,0,0,1.38-5.08A7.15,7.15,0,0,0,25.72,13Zm-4,9.78A6.38,6.38,0,0,1,17.46,24h-6.8l1.44-9.08h5.76a6.41,6.41,0,0,1,4,1,3.78,3.78,0,0,1,1.28,3.12A4.51,4.51,0,0,1,21.68,22.76Z"/><path class="cls-2" d="M45,20.22A10.53,10.53,0,0,0,40,19.14a11.15,11.15,0,0,0-4.24.8,10.23,10.23,0,0,0-3.46,2.32A10.75,10.75,0,0,0,30,25.9a12.82,12.82,0,0,0-.84,4.76,9.47,9.47,0,0,0,1.1,4.68,7.46,7.46,0,0,0,3.16,3.08,10.5,10.5,0,0,0,4.94,1.08,11.19,11.19,0,0,0,4.24-.8A10.33,10.33,0,0,0,46,36.38a10.75,10.75,0,0,0,2.34-3.64A12.82,12.82,0,0,0,49.22,28a9.58,9.58,0,0,0-1.1-4.7A7.58,7.58,0,0,0,45,20.22ZM43.5,31.82a6.66,6.66,0,0,1-1.94,2.84,4.74,4.74,0,0,1-3.1,1,4,4,0,0,1-3.14-1.26,5.22,5.22,0,0,1-1.14-3.62,11.08,11.08,0,0,1,.68-4,6.43,6.43,0,0,1,2-2.82,4.74,4.74,0,0,1,3.08-1A4,4,0,0,1,43,24.2a5.22,5.22,0,0,1,1.14,3.62A11.3,11.3,0,0,1,43.5,31.82Z"/><path class="cls-2" d="M67.7,20.38a11.43,11.43,0,0,0-2.48-.9,12.75,12.75,0,0,0-7.78.62A9.65,9.65,0,0,0,54,22.68a10.75,10.75,0,0,0-2,3.68,13.73,13.73,0,0,0-.66,4.22,10,10,0,0,0,1,4.66,7.28,7.28,0,0,0,3.1,3.14,10.71,10.71,0,0,0,5.18,1.12,12.87,12.87,0,0,0,2.88-.36,8.66,8.66,0,0,0,2.6-1,2.27,2.27,0,0,0,1-1A1.93,1.93,0,0,0,67.2,36a2,2,0,0,0-.46-1,1.64,1.64,0,0,0-.88-.54,1.55,1.55,0,0,0-1.08.16,7.15,7.15,0,0,1-1.82.72,7.46,7.46,0,0,1-1.62.2,4.62,4.62,0,0,1-3.78-1.4,5.64,5.64,0,0,1-1.14-3.68,10.73,10.73,0,0,1,.34-2.72,7.45,7.45,0,0,1,1.08-2.42,5.34,5.34,0,0,1,1.94-1.74A6.09,6.09,0,0,1,62.7,23a7.85,7.85,0,0,1,1.9.22,7.26,7.26,0,0,1,1.82.74,1.62,1.62,0,0,0,1.2.22,1.7,1.7,0,0,0,.92-.58,2.19,2.19,0,0,0,.46-1,1.9,1.9,0,0,0-.2-1.18A2.56,2.56,0,0,0,67.7,20.38Z"/><path class="cls-2" d="M86.45,19.22a3,3,0,0,0-1.5.36,8.21,8.21,0,0,0-1.42,1.12l-7.8,7.16h-.08l2.29-14.32a3,3,0,0,0-.34-2.18,1.94,1.94,0,0,0-1.7-.78,3,3,0,0,0-2,.58A2.79,2.79,0,0,0,73,13L69.3,36.54a2.79,2.79,0,0,0,.34,2.12,1.93,1.93,0,0,0,1.7.76A2.58,2.58,0,0,0,74.22,37l1.08-6.84h.08l6,7.36A10.49,10.49,0,0,0,82.76,39a2.49,2.49,0,0,0,1.61.46,2.12,2.12,0,0,0,1.53-.54,2,2,0,0,0,.62-1.36,2.32,2.32,0,0,0-.58-1.62l-5.38-6.76,6.86-6.44a2.53,2.53,0,0,0,.85-1.54,1.75,1.75,0,0,0-.35-1.38A1.81,1.81,0,0,0,86.45,19.22Z"/><path class="cls-2" d="M106.94,22.24a6.82,6.82,0,0,0-2.6-2.26,8.93,8.93,0,0,0-4.08-.84,10.43,10.43,0,0,0-5.61,1.52,10.67,10.67,0,0,0-3.81,4.1,12.22,12.22,0,0,0-1.38,5.86,9,9,0,0,0,1.19,4.68A8.18,8.18,0,0,0,94,38.4a11.37,11.37,0,0,0,5.15,1.1,16,16,0,0,0,3.51-.44A10.13,10.13,0,0,0,106,37.7a2.55,2.55,0,0,0,.9-1,2.06,2.06,0,0,0,.18-1.12,1.82,1.82,0,0,0-.42-.92,1.41,1.41,0,0,0-.92-.44,2.28,2.28,0,0,0-1.34.38,7.67,7.67,0,0,1-2.32.86,12.77,12.77,0,0,1-2.49.26A5.39,5.39,0,0,1,95.22,34a5,5,0,0,1-1.07-3.52H106.9a1.83,1.83,0,0,0,1-.24,1.44,1.44,0,0,0,.44-1.08,13.3,13.3,0,0,0-.12-3.68A8.54,8.54,0,0,0,106.94,22.24ZM95.38,25.4a5.63,5.63,0,0,1,1.88-2.06,5.23,5.23,0,0,1,3-.8,4.31,4.31,0,0,1,2.7.76,3.83,3.83,0,0,1,1.34,2,6.36,6.36,0,0,1,.18,2.26H94.59A8.36,8.36,0,0,1,95.38,25.4Z"/><path class="cls-2" d="M124.52,19.92a2.72,2.72,0,0,0-1.54-.38h-3.92l.51-3.4a2.54,2.54,0,0,0-.36-2,2.18,2.18,0,0,0-1.84-.72,2.74,2.74,0,0,0-1.84.58,2.9,2.9,0,0,0-.88,1.74l-.59,3.84h-1.88a2.86,2.86,0,0,0-1.85.56,2,2,0,0,0-.68,1.6,1.4,1.4,0,0,0,.54,1.18,2.43,2.43,0,0,0,1.5.42h1.76l-1.35,8.52a7.6,7.6,0,0,0,.3,4,5.15,5.15,0,0,0,2.33,2.7,8.48,8.48,0,0,0,4.29,1,11.31,11.31,0,0,0,1.23-.08,5.23,5.23,0,0,0,1.16-.24,2.46,2.46,0,0,0,1.2-.76,2.94,2.94,0,0,0,.45-1.88,1.68,1.68,0,0,0-.27-1.1,1,1,0,0,0-.81-.3,3.08,3.08,0,0,0-.83.12,4.28,4.28,0,0,1-1.13.12,3.08,3.08,0,0,1-2.37-.9,3.5,3.5,0,0,1-.51-3l1.31-8.2h4.28a2.35,2.35,0,0,0,1.71-.62,2.15,2.15,0,0,0,.62-1.58A1.37,1.37,0,0,0,124.52,19.92Z"/><path class="cls-2" d="M160.23,14.08a2.18,2.18,0,0,0-.9-1.22,11.64,11.64,0,0,0-3.72-1.76,16.19,16.19,0,0,0-4.44-.6,15.91,15.91,0,0,0-6.44,1.24A13.54,13.54,0,0,0,140,15.18a15.31,15.31,0,0,0-3,5.14,19.35,19.35,0,0,0-1,6.38,14,14,0,0,0,1.66,7.12,10.65,10.65,0,0,0,4.56,4.26,15,15,0,0,0,6.66,1.42,16.25,16.25,0,0,0,4.2-.58,13.39,13.39,0,0,0,4-1.74A2.46,2.46,0,0,0,158,36a2.15,2.15,0,0,0,.12-1.32,2.3,2.3,0,0,0-.58-1.14,1.83,1.83,0,0,0-1.1-.58,2.2,2.2,0,0,0-1.46.38,11.3,11.3,0,0,1-2.8,1.2,11,11,0,0,1-2.84.36,10,10,0,0,1-4.34-.86,5.67,5.67,0,0,1-2.68-2.72,11.11,11.11,0,0,1-.9-4.82,14.82,14.82,0,0,1,1.12-5.88,9.52,9.52,0,0,1,3.26-4.1,8.88,8.88,0,0,1,5.22-1.5,11.56,11.56,0,0,1,3.08.4,10.57,10.57,0,0,1,3,1.44,1.88,1.88,0,0,0,1.32.34,1.86,1.86,0,0,0,1.1-.6,2.87,2.87,0,0,0,.66-1.18A2.49,2.49,0,0,0,160.23,14.08Z"/><path class="cls-2" d="M175.65,20.3a9.12,9.12,0,0,0-5-1.16,18.49,18.49,0,0,0-3.42.34,15.47,15.47,0,0,0-3.5,1.1,3,3,0,0,0-1.25,1,1.71,1.71,0,0,0-.34,1.14,1.54,1.54,0,0,0,.42,1,1.74,1.74,0,0,0,1,.54,2.38,2.38,0,0,0,1.37-.2,12,12,0,0,1,2.55-.86,12.8,12.8,0,0,1,2.57-.26,4,4,0,0,1,3.13,1,3.27,3.27,0,0,1,.58,2.88l-.11.72H170.9a25.11,25.11,0,0,0-6.25.64,7.1,7.1,0,0,0-3.59,1.94,4.85,4.85,0,0,0-1.16,3.38,5.39,5.39,0,0,0,.89,3,6.78,6.78,0,0,0,2.39,2.18,6.56,6.56,0,0,0,3.27.82,7.29,7.29,0,0,0,2.62-.48,6.5,6.5,0,0,0,2.29-1.5,6.75,6.75,0,0,0,1-1.26l-.07.4a2.64,2.64,0,0,0,.35,2.06,1.88,1.88,0,0,0,1.62.7,2.69,2.69,0,0,0,1.85-.62,2.86,2.86,0,0,0,.87-1.86L178.33,28a9.91,9.91,0,0,0-.23-4.56A5.73,5.73,0,0,0,175.65,20.3ZM172.1,34a4.85,4.85,0,0,1-4.08,2.1,3.5,3.5,0,0,1-2.3-.76,2.62,2.62,0,0,1-.95-2.16,2.31,2.31,0,0,1,.6-1.68,3.69,3.69,0,0,1,2-.84,23.41,23.41,0,0,1,3.77-.24h2.06L173,31.54A5.69,5.69,0,0,1,172.1,34Z"/><path class="cls-2" d="M196.11,19.46a1.88,1.88,0,0,0-1.5-.32,8.35,8.35,0,0,0-4.36,1.46,6.87,6.87,0,0,0-2,2.29l.14-.87a2.66,2.66,0,0,0-.34-2.08,2,2,0,0,0-1.7-.72,2.86,2.86,0,0,0-1.88.6,2.94,2.94,0,0,0-.92,1.8l-2.35,15a2.72,2.72,0,0,0,.34,2.1,2,2,0,0,0,1.73.74,3.1,3.1,0,0,0,2-.6,2.65,2.65,0,0,0,.91-1.8l1.27-8.08A7.45,7.45,0,0,1,189,25.2a5.68,5.68,0,0,1,3.84-1.62l1.16-.12a3,3,0,0,0,1.88-.74,2.74,2.74,0,0,0,.59-1.94A1.86,1.86,0,0,0,196.11,19.46Z"/></svg>